<?xml version="1.0" encoding="UTF-8"?>
<svg width="40px" height="36px" viewBox="0 0 40 36" version="1.1" xmlns="http://www.w3.org/2000/svg" xmlns:xlink="http://www.w3.org/1999/xlink">
    <!-- Generator: Sketch 48.2 (47327) - http://www.bohemiancoding.com/sketch -->
    <title>Group 22</title>
    <desc>Created with Sketch.</desc>
    <defs></defs>
    <g id="Prototype" stroke="none" stroke-width="1" fill="none" fill-rule="evenodd">
        <g id="Group-21" transform="translate(-523.000000, -389.000000)">
            <g id="Group-20" transform="translate(46.000000, 243.000000)">
                <g id="h2">
                    <g id="Group-22" transform="translate(477.000000, 146.000000)">
                        <path d="M20.4166667,6.3736297 C20.4166667,6.3736297 16.0479905,-0.8987608 8.99089812,0.0929288139 C1.93380578,1.08461843 -2.37935245,9.88966455 3.80807719,19.8065607 C5.91922268,23.1901968 8.52324564,26.0525694 11.0380345,28.3554754 C15.8936893,32.8020186 20.4166667,35.1627907 20.4166667,35.1627907 C20.4267396,35.1579365 30.8410706,29.7182574 37.0252561,19.8065607 C43.2126858,9.88966455 38.8995276,1.08461843 31.8424352,0.0929288139 C24.7853429,-0.8987608 20.4166667,6.3736297 20.4166667,6.3736297 Z" id="Combined-Shape" fill="#E53B3B"></path>
                        <path d="M22.0924881,3.31936941 C24.7461236,0.905276065 27.8409027,-0.382871771 31.3007343,0.100692208 C35.0679738,0.627221123 38.1065582,3.23050119 39.3672833,6.99631693 C40.7043765,10.9902459 39.9319994,15.8213018 36.9573616,20.5631605 C34.249549,24.8796743 30.5672165,28.6566457 26.3612541,31.8759353 C24.8909434,33.0013271 23.4592683,33.9775206 22.1222177,34.8012768 C21.3097866,35.3018152 20.5516066,35.7286396 20.3528676,35.8238966 L19.9854551,36 L19.6237682,35.8122364 C19.5778216,35.788384 19.4940477,35.7436677 19.3749582,35.6782411 C19.1798083,35.5710276 18.9543897,35.4434217 18.7012134,35.2955743 C17.9814929,34.8752791 17.1810486,34.3759061 16.3199603,33.7986157 C13.8622447,32.1509152 11.4051119,30.2062208 9.10939273,27.9725035 C6.755304,25.681993 4.70377194,23.2111671 3.04263837,20.5631605 C0.0680005515,15.8213018 -0.70437652,10.9902459 0.632716657,6.99631693 C1.89344177,3.23050119 4.93202616,0.627221123 8.69926571,0.100692208 C12.1590973,-0.382871771 15.2538764,0.905276065 17.9075119,3.31936941 C18.6922462,4.03326617 19.3799811,4.796459 19.9676141,5.56054842 C20.6200189,4.796459 21.3077538,4.03326617 22.0924881,3.31936941 Z M21.2651381,33.3873905 C22.5568687,32.5915559 23.9430832,31.6463599 25.3673655,30.5561987 C29.4285199,27.4477468 32.9771433,23.8079208 35.5682261,19.6774857 C38.2899042,15.338869 38.9801456,11.0215549 37.8099667,7.52620295 C36.7458387,4.34762738 34.2171007,2.18115371 31.0750272,1.74200124 C28.1611809,1.33474699 25.5181406,2.43486644 23.1936192,4.54955454 C22.4857875,5.19349066 21.8625417,5.88511877 21.3313255,6.5758503 C21.146264,6.81648265 20.9864233,7.03901867 20.8526071,7.23734405 C20.7746861,7.3528286 20.7242081,7.4320722 20.7019266,7.46896318 L20,8.63112893 L19.2980734,7.46896318 C19.2757919,7.4320722 19.2253139,7.3528286 19.1473929,7.23734405 C19.0135767,7.03901867 18.853736,6.81648265 18.6686745,6.5758503 C18.1374583,5.88511877 17.5142125,5.19349066 16.8063808,4.54955454 C14.4818594,2.43486644 11.8388191,1.33474699 8.92497277,1.74200124 C5.78289926,2.18115371 3.25416132,4.34762738 2.1900333,7.52620295 C1.01985444,11.0215549 1.71009577,15.338869 4.4317739,19.6774857 C6.01841952,22.2067514 7.98648283,24.5770491 10.2508093,26.7802216 C12.4700459,28.9395219 14.8503659,30.8234229 17.2301028,32.4188449 C18.0621229,32.9766475 18.8338508,33.4581052 19.525054,33.8617472 C19.6979934,33.9627386 19.8566419,34.0534173 20.0000613,34.1337172 C20.4074313,33.9044786 20.8140448,33.6653088 21.2651381,33.3873905 Z" id="Combined-Shape-Copy-6" fill="#601D47" fill-rule="nonzero"></path>
                        <path d="M30.0320513,5.86046512 C29.5541126,5.86046512 29.1666667,5.48563374 29.1666667,5.02325581 C29.1666667,4.56087788 29.5541126,4.18604651 30.0320513,4.18604651 C33.6962482,4.18604651 36.6666667,7.0597537 36.6666667,10.6046512 C36.6666667,11.0670291 36.2792208,11.4418605 35.8012821,11.4418605 C35.3233433,11.4418605 34.9358974,11.0670291 34.9358974,10.6046512 C34.9358974,7.98450956 32.7403707,5.86046512 30.0320513,5.86046512 Z M35.5128205,14.2325581 C35.0348818,14.2325581 34.6474359,13.8577268 34.6474359,13.3953488 C34.6474359,12.9329709 35.0348818,12.5581395 35.5128205,12.5581395 C35.9907592,12.5581395 36.3782051,12.9329709 36.3782051,13.3953488 C36.3782051,13.8577268 35.9907592,14.2325581 35.5128205,14.2325581 Z" id="Combined-Shape" fill="#FFFFFF" fill-rule="nonzero"></path>
                        <text id="8" font-family="Quicksand-Medium, Quicksand" font-size="17" font-weight="400" letter-spacing="0.5" fill="#FFFFFF">
                            <tspan x="15" y="23">8</tspan>
                        </text>
                    </g>
                </g>
            </g>
        </g>
    </g>
</svg>