<?xml version="1.0" encoding="UTF-8"?>
<svg width="40px" height="44px" viewBox="0 0 40 44" version="1.1" xmlns="http://www.w3.org/2000/svg" xmlns:xlink="http://www.w3.org/1999/xlink">
    <!-- Generator: Sketch 48.2 (47327) - http://www.bohemiancoding.com/sketch -->
    <title>Group</title>
    <desc>Created with Sketch.</desc>
    <defs>
        <ellipse id="path-1" cx="20" cy="20.5" rx="20" ry="20.5"></ellipse>
        <path d="M2,26.8571429 L0,26.8571429 L0,-2.84217094e-14 L44,-2.84217094e-14 L44,26.8571429 L42,26.8571429 C42,37.9817357 33.045695,47 22,47 C10.954305,47 2,37.9817357 2,26.8571429 Z" id="path-3"></path>
        <path d="M12.6666667,24.2803965 C9.77626744,22.9073176 7.70356854,20.0923634 7.3780841,16.7650479 C6.41025595,16.6251782 5.66666667,15.7922836 5.66666667,14.7857143 L5.66666667,12.4071429 C5.66666667,11.4161441 6.38742889,10.5934884 7.33333333,10.4347957 L7.33333333,9.33333333 C7.33333333,4.17867567 11.512009,9.46895252e-16 16.6666667,0 C21.8213243,-9.46895252e-16 26,4.17867567 26,9.33333333 L26,10.4347957 C26.9459044,10.5934884 27.6666667,11.4161441 27.6666667,12.4071429 L27.6666667,14.7857143 C27.6666667,15.7922836 26.9230774,16.6251782 25.9552492,16.7650479 C25.6297648,20.0923634 23.5570659,22.9073176 20.6666667,24.2803965 L20.6666667,27.3920051 C27.7421171,27.8698311 33.3333333,33.7605377 33.3333333,40.9571429 L0,40.9571429 C-8.81329944e-16,33.7605377 5.59121624,27.8698311 12.6666667,27.3920051 L12.6666667,24.2803965 Z" id="path-5"></path>
        <path d="M18,2.13887219 L18,5.16363636 C18,7.37277536 19.790861,9.16363636 22,9.16363636 C24.209139,9.16363636 26,7.37277536 26,5.16363636 L26,2.13887219 C29.0167729,2.47030304 31.3333333,3.38128219 31.3333333,5.73986014 C31.3333333,5.87113665 31.3261568,6.00042224 31.3120823,6.1276704 C35.6715138,8.29830864 38.6666667,12.7993766 38.6666667,18 L5.33333333,18 C5.33333333,12.7993766 8.32848621,8.29830864 12.6879177,6.1276704 C12.6738432,6.00042224 12.6666667,5.87113665 12.6666667,5.73986014 C12.6666667,3.38128219 14.9832271,2.47030304 18,2.13887219 Z" id="path-7"></path>
        <path d="M5.85297399,2.40673955 C6.02928534,3.91678676 7.37099788,5.09090909 9,5.09090909 C10.6340342,5.09090909 11.9790012,3.90952163 12.1486265,2.39273596 C12.1622781,2.27066413 12.0194572,2.06818182 11.8404612,2.06818182 C9.35812561,2.06818182 7.45632022,2.06818182 6.1811374,2.06818182 C6.0011028,2.06818182 5.83533429,2.25566147 5.85297399,2.40673955 Z" id="path-9"></path>
        <rect id="path-11" x="0" y="0" width="44" height="47"></rect>
        <path d="M6.28571429,13.3210677 L6.28571429,18.768985 C6.28571429,22.4641856 8.449393,25.654032 11.5789474,27.1407212 L11.5789474,29.3323055 C8.33065254,29.7836026 5.7300888,30.5774458 3.86811897,30.3821977 C1.51546051,30.1354955 0.247497728,25.3121295 0.165413534,21.15 C0.0633333477,15.9739615 4.8497525,5.16916093 6.61654135,3.02142857 C7.92712958,1.42825985 11.5285453,0.092429434 15.5489001,0.167857143 C19.5692548,0.243284852 23.3004692,1.1434697 24.6466444,2.85357143 C26.6851827,5.4432104 30.9106164,15.2882007 30.9323587,21.15 C30.9477994,25.3128654 29.3547075,29.4857774 27.1278474,29.7107143 C25.2951256,29.895839 22.74032,29.4608326 19.518797,29.2066966 L19.518797,27.1407212 C22.6483514,25.654032 24.8120301,22.4641856 24.8120301,18.768985 L24.8120301,13.9301685 C23.2370839,13.1147739 21.8119735,12.1273717 20.5366988,10.9679621 C21.0674495,11.856901 21.64416,12.6140505 22.2668303,13.2394106 C17.7978866,11.9670086 14.2430196,9.81126877 11.6022294,6.77219128 C10.2820608,9.5358857 8.50988913,11.7188445 6.28571429,13.3210677 Z" id="path-13"></path>
    </defs>
    <g id="Prototype" stroke="none" stroke-width="1" fill="none" fill-rule="evenodd">
        <g id="Group" transform="translate(-2.000000, -3.000000)">
            <g id="Circle" transform="translate(2.000000, 6.000000)">
                <mask id="mask-2" fill="white">
                    <use xlink:href="#path-1"></use>
                </mask>
                <use id="Circle-Background" fill="#E6E6E6" xlink:href="#path-1"></use>
                <g id="Color/Palette/Blue-01" mask="url(#mask-2)" fill="#1CB0F6">
                    <rect id="ðŸ–Color" x="0" y="0" width="40" height="41"></rect>
                </g>
            </g>
            <mask id="mask-4" fill="white">
                <use xlink:href="#path-3"></use>
            </mask>
            <g id="Mask"></g>
            <g id="Avataaar/Default" mask="url(#mask-4)">
                <g id="Body" stroke-width="1" fill-rule="evenodd" transform="translate(5.333333, 6.042857)">
                    <mask id="mask-6" fill="white">
                        <use xlink:href="#path-5"></use>
                    </mask>
                    <use fill="#D0C6AC" xlink:href="#path-5"></use>
                    <g id="Skin/ðŸ‘¶ðŸ½-03-Brown" mask="url(#mask-6)" fill="#D08B5B">
                        <g transform="translate(-5.333333, 0.000000)" id="Color">
                            <rect x="0" y="0" width="44" height="41"></rect>
                        </g>
                    </g>
                    <path d="M26,15.8452381 L26,17.1880952 C26,22.3427529 21.8213243,26.5214286 16.6666667,26.5214286 C11.512009,26.5214286 7.33333333,22.3427529 7.33333333,17.1880952 L7.33333333,15.8452381 C7.33333333,20.9998958 11.512009,25.1785714 16.6666667,25.1785714 C21.8213243,25.1785714 26,20.9998958 26,15.8452381 Z" id="Neck-Shadow" fill-opacity="0.100000001" fill="#000000" mask="url(#mask-6)"></path>
                </g>
                <g id="Clothing/Hoodie" transform="translate(0.000000, 28.535714)">
                    <mask id="mask-8" fill="white">
                        <use xlink:href="#path-7"></use>
                    </mask>
                    <use id="Hoodie" fill="#B7C1DB" fill-rule="evenodd" xlink:href="#path-7"></use>
                    <g id="Color/Palette/Gray-01" mask="url(#mask-8)" fill="#E6E6E6" fill-rule="evenodd">
                        <rect id="ðŸ–Color" x="0" y="0" width="44" height="18"></rect>
                    </g>
                    <path d="M17,10.1027542 L17,18 L15.8333333,18 L15.8333333,9.5154975 C16.2006257,9.72982761 16.5911282,9.92631072 17,10.1027542 Z M28.1666667,9.5154975 L28.1666667,16.1075758 C28.1666667,16.4297419 27.9054994,16.6909091 27.5833333,16.6909091 C27.2611672,16.6909091 27,16.4297419 27,16.1075758 L27,10.1027542 C27.4088718,9.92631072 27.7993743,9.72982761 28.1666667,9.5154975 Z" id="Straps" fill="#F4F4F4" fill-rule="evenodd" mask="url(#mask-8)"></path>
                    <path d="M21.998076,11.1272726 C21.9987174,11.1272727 21.9993587,11.1272727 22,11.1272727 C26.6964659,11.1272727 31.3333333,8.42219597 31.3333333,5.08531469 C31.3333333,3.55189984 30.3541534,2.63036614 28.8399778,2.08216697 C31.3484484,2.54801097 33.0833333,3.47610841 33.0833333,5.28671329 C33.0833333,8.5123652 27.5770532,11.1272727 22,11.1272727 C21.9993587,11.1272727 21.9987174,11.1272727 21.998076,11.1272726 Z M21.998076,11.1272726 C16.4216805,11.1266713 10.9166667,8.51199427 10.9166667,5.28671329 C10.9166667,3.47610841 12.6515516,2.54801097 15.1600222,2.08216697 Z" id="Shadow" fill-opacity="0.16" fill="#000000" fill-rule="evenodd" mask="url(#mask-8)"></path>
                </g>
                <g id="Face" stroke-width="1" fill-rule="evenodd" transform="translate(12.666667, 13.764286)">
                    <g id="Mouth/Smile" transform="translate(0.333333, 8.728571)">
                        <mask id="mask-10" fill="white">
                            <use xlink:href="#path-9"></use>
                        </mask>
                        <use id="Mouth" fill-opacity="0.699999988" fill="#000000" fill-rule="evenodd" xlink:href="#path-9"></use>
                        <rect id="Teeth" fill="#FFFFFF" fill-rule="evenodd" mask="url(#mask-10)" x="6.5" y="0.318181818" width="5.16666667" height="2.54545455" rx="1.27272727"></rect>
                        <g id="Tongue" stroke-width="1" fill-rule="evenodd" mask="url(#mask-10)" fill="#FF4F6D">
                            <g transform="translate(6.333333, 3.818182)">
                                <ellipse cx="1.83333333" cy="1.75" rx="1.83333333" ry="1.75"></ellipse>
                                <ellipse cx="3.5" cy="1.75" rx="1.83333333" ry="1.75"></ellipse>
                            </g>
                        </g>
                    </g>
                    <g id="Nose/Default" transform="translate(4.666667, 6.714286)" fill="#000000" fill-opacity="0.16">
                        <path d="M2.57142857,1.33333333 C2.57142857,2.069713 3.43487941,2.66666667 4.5,2.66666667 C5.56512059,2.66666667 6.42857143,2.069713 6.42857143,1.33333333" id="Nose"></path>
                    </g>
                    <g id="Eyes/Happy-ðŸ˜" transform="translate(0.000000, 1.342857)" fill="#000000" fill-opacity="0.599999964">
                        <path d="M2.74145697,3.5711632 C3.05470396,2.96680809 3.76003596,2.54545455 4.57994665,2.54545455 C5.39696299,2.54545455 6.10020814,2.9638385 6.41510432,3.56476976 C6.50864688,3.74328146 6.37553545,3.88937208 6.24126369,3.78111727 C5.82545197,3.44587462 5.23496081,3.23651179 4.57994665,3.23651179 C3.94541889,3.23651179 3.37144116,3.43298325 2.95815396,3.75003383 C2.80704521,3.86595592 2.64983859,3.7479248 2.74145697,3.5711632 Z" id="Squint"></path>
                        <path d="M12.5807427,3.5711632 C12.8939897,2.96680809 13.5993217,2.54545455 14.4192324,2.54545455 C15.2362487,2.54545455 15.9394939,2.9638385 16.25439,3.56476976 C16.3479326,3.74328146 16.2148212,3.88937208 16.0805494,3.78111727 C15.6647377,3.44587462 15.0742465,3.23651179 14.4192324,3.23651179 C13.7847046,3.23651179 13.2107269,3.43298325 12.7974397,3.75003383 C12.6463309,3.86595592 12.4891243,3.7479248 12.5807427,3.5711632 Z" id="Squint"></path>
                    </g>
                    <g id="Eyebrow/Natural/Default-Natural" fill="#000000" fill-opacity="0.599999964">
                        <path d="M4.41734621,1.03502061 C3.43994243,1.16391036 1.91576513,2.00087465 2.04322268,2.96963519 C2.04741084,3.00134239 2.09623102,3.01122446 2.11729684,2.98474895 C2.5391132,2.45338919 5.80056383,1.67275802 6.9883132,1.83578585 C7.0970178,1.85074108 7.16877909,1.74050572 7.09464243,1.67170111 C6.45941749,1.08247571 5.29292146,0.918708041 4.41734621,1.03502061" id="Eyebrow" transform="translate(4.580357, 2.000000) rotate(5.000000) translate(-4.580357, -2.000000) "></path>
                        <path d="M14.4262748,1.03502061 C13.448871,1.16391036 11.9246937,2.00087465 12.0521513,2.96963519 C12.0563394,3.00134239 12.1051596,3.01122446 12.1262254,2.98474895 C12.5480418,2.45338919 15.8094924,1.67275802 16.9972418,1.83578585 C17.1059464,1.85074108 17.1777077,1.74050572 17.103571,1.67170111 C16.4683461,1.08247571 15.30185,0.918708041 14.4262748,1.03502061" id="Eyebrow" transform="translate(14.589286, 2.000000) scale(-1, 1) rotate(5.000000) translate(-14.589286, -2.000000) "></path>
                    </g>
                </g>
                <g id="Top" stroke-width="1" fill-rule="evenodd">
                    <mask id="mask-12" fill="white">
                        <use xlink:href="#path-11"></use>
                    </mask>
                    <g id="Mask"></g>
                    <g id="Top/Long-Hair/Bob" mask="url(#mask-12)">
                        <g transform="translate(-0.166667, 0.000000)">
                            <g id="Hair" stroke-width="1" fill-rule="evenodd" transform="translate(6.451128, 3.189286)">
                                <mask id="mask-14" fill="white">
                                    <use xlink:href="#path-13"></use>
                                </mask>
                                <use id="Combined-Shape" fill="#E6E6E6" xlink:href="#path-13"></use>
                                <g id="Color/Hair/Brown-Dark" mask="url(#mask-14)" fill="#4A312C">
                                    <g transform="translate(-6.451128, -3.189286)" id="Color">
                                        <rect x="0" y="0" width="44" height="47"></rect>
                                    </g>
                                </g>
                            </g>
                            <g id="Facial-Hair/-Blank" transform="translate(8.105263, 12.085714)"></g>
                            <g id="Top/_Resources/Blank" transform="translate(10.255639, 14.267857)"></g>
                        </g>
                    </g>
                </g>
            </g>
        </g>
    </g>
</svg>